{"asset":{"version":"2.0","generator":"THREE.GLTFExporter r166"},"scenes":[{"name":"AuxScene","nodes":[6]}],"scene":0,"nodes":[{"mesh":0},{"mesh":1},{"mesh":2},{"mesh":3},{"mesh":4},{"matrix":[0.25,0,0,0,0,-0.25,0,0,0,0,0.25,0,-64,64,-2.5,1],"children":[0,1,2,3,4]},{"matrix":[0.9655661964114901,0,0.260157491430571,0,0,1,0,0,-0.260157491430571,0,0.9655661964114901,0,0,0,0,1],"children":[5]}],"bufferViews":[{"buffer":0,"byteOffset":0,"byteLength":3312,"target":34962,"byteStride":12},{"buffer":0,"byteOffset":3312,"byteLength":2208,"target":34962,"byteStride":8},{"buffer":0,"byteOffset":5520,"byteLength":3312,"target":34962,"byteStride":12},{"buffer":0,"byteOffset":8832,"byteLength":3312,"target":34962,"byteStride":12},{"buffer":0,"byteOffset":12144,"byteLength":2208,"target":34962,"byteStride":8},{"buffer":0,"byteOffset":14352,"byteLength":3312,"target":34962,"byteStride":12},{"buffer":0,"byteOffset":17664,"byteLength":3312,"target":34962,"byteStride":12},{"buffer":0,"byteOffset":20976,"byteLength":2208,"target":34962,"byteStride":8},{"buffer":0,"byteOffset":23184,"byteLength":3312,"target":34962,"byteStride":12},{"buffer":0,"byteOffset":26496,"byteLength":3312,"target":34962,"byteStride":12},{"buffer":0,"byteOffset":29808,"byteLength":2208,"target":34962,"byteStride":8},{"buffer":0,"byteOffset":32016,"byteLength":3312,"target":34962,"byteStride":12},{"buffer":0,"byteOffset":35328,"byteLength":3312,"target":34962,"byteStride":12},{"buffer":0,"byteOffset":38640,"byteLength":2208,"target":34962,"byteStride":8},{"buffer":0,"byteOffset":40848,"byteLength":3312,"target":34962,"byteStride":12}],"buffers":[{"byteLength":44160,"uri":"data:application/octet-stream;base64,"}],"accessors":[{"bufferView":0,"componentType":5126,"count":276,"max":[357,132,52],"min":[155,80,-2],"type":"VEC3"},{"bufferView":1,"componentType":5126,"count":276,"max":[357,131],"min":[80,-51],"type":"VEC2"},{"bufferView":2,"componentType":5126,"count":276,"max":[1,1,1],"min":[-1,-1,-1],"type":"VEC3"},{"bufferView":3,"componentType":5126,"count":276,"max":[207,232,52],"min":[155,130,-2],"type":"VEC3"},{"bufferView":4,"componentType":5126,"count":276,"max":[232,231],"min":[130,-51],"type":"VEC2"},{"bufferView":5,"componentType":5126,"count":276,"max":[1,1,1],"min":[-1,-1,-1],"type":"VEC3"},{"bufferView":6,"componentType":5126,"count":276,"max":[307,282,52],"min":[155,230,-2],"type":"VEC3"},{"bufferView":7,"componentType":5126,"count":276,"max":[307,281],"min":[155,-51],"type":"VEC2"},{"bufferView":8,"componentType":5126,"count":276,"max":[1,1,1],"min":[-1,-1,-1],"type":"VEC3"},{"bufferView":9,"componentType":5126,"count":276,"max":[357,382,52],"min":[305,280,-2],"type":"VEC3"},{"bufferView":10,"componentType":5126,"count":276,"max":[382,381],"min":[280,-51],"type":"VEC2"},{"bufferView":11,"componentType":5126,"count":276,"max":[1,1,1],"min":[-1,-1,-1],"type":"VEC3"},{"bufferView":12,"componentType":5126,"count":276,"max":[357,432,52],"min":[155,380,-2],"type":"VEC3"},{"bufferView":13,"componentType":5126,"count":276,"max":[432,431],"min":[155,-51],"type":"VEC2"},{"bufferView":14,"componentType":5126,"count":276,"max":[1,1,1],"min":[-1,-1,-1],"type":"VEC3"}],"materials":[{"pbrMetallicRoughness":{"baseColorFactor":[1,0,0,1],"metallicFactor":0.72,"roughnessFactor":0.11},"doubleSided":true,"extensions":{"KHR_materials_clearcoat":{"clearcoatFactor":1,"clearcoatRoughnessFactor":0.1}}},{"pbrMetallicRoughness":{"baseColorFactor":[1,0.37626212298046485,0,1],"metallicFactor":0.72,"roughnessFactor":0.11},"doubleSided":true,"extensions":{"KHR_materials_clearcoat":{"clearcoatFactor":1,"clearcoatRoughnessFactor":0.1}}},{"pbrMetallicRoughness":{"baseColorFactor":[1,1,0,1],"metallicFactor":0.72,"roughnessFactor":0.11},"doubleSided":true,"extensions":{"KHR_materials_clearcoat":{"clearcoatFactor":1,"clearcoatRoughnessFactor":0.1}}},{"pbrMetallicRoughness":{"baseColorFactor":[0,0.21586050010324417,0,1],"metallicFactor":0.72,"roughnessFactor":0.11},"doubleSided":true,"extensions":{"KHR_materials_clearcoat":{"clearcoatFactor":1,"clearcoatRoughnessFactor":0.1}}},{"pbrMetallicRoughness":{"baseColorFactor":[0,0,1,1],"metallicFactor":0.72,"roughnessFactor":0.11},"doubleSided":true,"extensions":{"KHR_materials_clearcoat":{"clearcoatFactor":1,"clearcoatRoughnessFactor":0.1}}}],"meshes":[{"primitives":[{"mode":4,"attributes":{"POSITION":0,"TEXCOORD_0":1,"NORMAL":2},"material":0}]},{"primitives":[{"mode":4,"attributes":{"POSITION":3,"TEXCOORD_0":4,"NORMAL":5},"material":1}]},{"primitives":[{"mode":4,"attributes":{"POSITION":6,"TEXCOORD_0":7,"NORMAL":8},"material":2}]},{"primitives":[{"mode":4,"attributes":{"POSITION":9,"TEXCOORD_0":10,"NORMAL":11},"material":3}]},{"primitives":[{"mode":4,"attributes":{"POSITION":12,"TEXCOORD_0":13,"NORMAL":14},"material":4}]}],"extensionsUsed":["KHR_materials_clearcoat"]}