{"asset":{"version":"2.0","generator":"THREE.GLTFExporter r166"},"scenes":[{"name":"AuxScene","nodes":[8]}],"scene":0,"nodes":[{"mesh":0},{"mesh":1},{"mesh":2},{"mesh":3},{"mesh":4},{"mesh":5},{"mesh":6},{"matrix":[0.25,0,0,0,0,-0.25,0,0,0,0,0.25,0,-12.125,6.875,-2.5,1],"children":[0,1,2,3,4,5,6]},{"matrix":[0.8618882626346489,0,-0.5070982377534223,0,0,1,0,0,0.5070982377534223,0,0.8618882626346489,0,0,0,0,1],"children":[7]}],"bufferViews":[{"buffer":0,"byteOffset":0,"byteLength":3312,"target":34962,"byteStride":12},{"buffer":0,"byteOffset":3312,"byteLength":2208,"target":34962,"byteStride":8},{"buffer":0,"byteOffset":5520,"byteLength":3312,"target":34962,"byteStride":12},{"buffer":0,"byteOffset":8832,"byteLength":3312,"target":34962,"byteStride":12},{"buffer":0,"byteOffset":12144,"byteLength":2208,"target":34962,"byteStride":8},{"buffer":0,"byteOffset":14352,"byteLength":3312,"target":34962,"byteStride":12},{"buffer":0,"byteOffset":17664,"byteLength":3312,"target":34962,"byteStride":12},{"buffer":0,"byteOffset":20976,"byteLength":2208,"target":34962,"byteStride":8},{"buffer":0,"byteOffset":23184,"byteLength":3312,"target":34962,"byteStride":12},{"buffer":0,"byteOffset":26496,"byteLength":3312,"target":34962,"byteStride":12},{"buffer":0,"byteOffset":29808,"byteLength":2208,"target":34962,"byteStride":8},{"buffer":0,"byteOffset":32016,"byteLength":3312,"target":34962,"byteStride":12},{"buffer":0,"byteOffset":35328,"byteLength":3312,"target":34962,"byteStride":12},{"buffer":0,"byteOffset":38640,"byteLength":2208,"target":34962,"byteStride":8},{"buffer":0,"byteOffset":40848,"byteLength":3312,"target":34962,"byteStride":12},{"buffer":0,"byteOffset":44160,"byteLength":3312,"target":34962,"byteStride":12},{"buffer":0,"byteOffset":47472,"byteLength":2208,"target":34962,"byteStride":8},{"buffer":0,"byteOffset":49680,"byteLength":3312,"target":34962,"byteStride":12},{"buffer":0,"byteOffset":52992,"byteLength":3312,"target":34962,"byteStride":12},{"buffer":0,"byteOffset":56304,"byteLength":2208,"target":34962,"byteStride":8},{"buffer":0,"byteOffset":58512,"byteLength":3312,"target":34962,"byteStride":12}],"buffers":[{"byteLength":61824,"uri":"data:application/octet-stream;base64,"}],"accessors":[{"bufferView":0,"componentType":5126,"count":276,"max":[23,56,25],"min":[9,14,-2],"type":"VEC3"},{"bufferView":1,"componentType":5126,"count":276,"max":[56,55],"min":[9,-24],"type":"VEC2"},{"bufferView":2,"componentType":5126,"count":276,"max":[1,1,1],"min":[-1,-1,-1],"type":"VEC3"},{"bufferView":3,"componentType":5126,"count":276,"max":[39,41,25],"min":[19,14,-2],"type":"VEC3"},{"bufferView":4,"componentType":5126,"count":276,"max":[41,40],"min":[14,-24],"type":"VEC2"},{"bufferView":5,"componentType":5126,"count":276,"max":[1,1,1],"min":[-1,-1,-1],"type":"VEC3"},{"bufferView":6,"componentType":5126,"count":276,"max":[53,56,25],"min":[39,-1,-2],"type":"VEC3"},{"bufferView":7,"componentType":5126,"count":276,"max":[56,55],"min":[-1,-24],"type":"VEC2"},{"bufferView":8,"componentType":5126,"count":276,"max":[1,1,1],"min":[-1,-1,-1],"type":"VEC3"},{"bufferView":9,"componentType":5126,"count":276,"max":[68,56,25],"min":[54,14,-2],"type":"VEC3"},{"bufferView":10,"componentType":5126,"count":276,"max":[68,55],"min":[14,-24],"type":"VEC2"},{"bufferView":11,"componentType":5126,"count":276,"max":[1,1,1],"min":[-1,-1,-1],"type":"VEC3"},{"bufferView":12,"componentType":5126,"count":276,"max":[84,26,25],"min":[64,14,-2],"type":"VEC3"},{"bufferView":13,"componentType":5126,"count":276,"max":[84,25],"min":[14,-24],"type":"VEC2"},{"bufferView":14,"componentType":5126,"count":276,"max":[1,1,1],"min":[-1,-1,-1],"type":"VEC3"},{"bufferView":15,"componentType":5126,"count":276,"max":[84,41,25],"min":[64,29,-2],"type":"VEC3"},{"bufferView":16,"componentType":5126,"count":276,"max":[84,40],"min":[29,-24],"type":"VEC2"},{"bufferView":17,"componentType":5126,"count":276,"max":[1,1,1],"min":[-1,-1,-1],"type":"VEC3"},{"bufferView":18,"componentType":5126,"count":276,"max":[88,56,25],"min":[74,14,-2],"type":"VEC3"},{"bufferView":19,"componentType":5126,"count":276,"max":[88,55],"min":[14,-24],"type":"VEC2"},{"bufferView":20,"componentType":5126,"count":276,"max":[1,1,1],"min":[-1,-1,-1],"type":"VEC3"}],"materials":[{"pbrMetallicRoughness":{"baseColorFactor":[0.28314874041918053,0.28314874041918053,0.28314874041918053,1],"metallicFactor":0.9,"roughnessFactor":0.1},"doubleSided":true,"extensions":{"KHR_materials_clearcoat":{"clearcoatFactor":1,"clearcoatRoughnessFactor":0.1}}},{"pbrMetallicRoughness":{"baseColorFactor":[0.28314874041918053,0.28314874041918053,0.28314874041918053,1],"metallicFactor":0.9,"roughnessFactor":0.1},"doubleSided":true,"extensions":{"KHR_materials_clearcoat":{"clearcoatFactor":1,"clearcoatRoughnessFactor":0.1}}},{"pbrMetallicRoughness":{"baseColorFactor":[0.28314874041918053,0.28314874041918053,0.28314874041918053,1],"metallicFactor":0.9,"roughnessFactor":0.1},"doubleSided":true,"extensions":{"KHR_materials_clearcoat":{"clearcoatFactor":1,"clearcoatRoughnessFactor":0.1}}},{"pbrMetallicRoughness":{"baseColorFactor":[0.28314874041918053,0.28314874041918053,0.28314874041918053,1],"metallicFactor":0.9,"roughnessFactor":0.1},"doubleSided":true,"extensions":{"KHR_materials_clearcoat":{"clearcoatFactor":1,"clearcoatRoughnessFactor":0.1}}},{"pbrMetallicRoughness":{"baseColorFactor":[0.28314874041918053,0.28314874041918053,0.28314874041918053,1],"metallicFactor":0.9,"roughnessFactor":0.1},"doubleSided":true,"extensions":{"KHR_materials_clearcoat":{"clearcoatFactor":1,"clearcoatRoughnessFactor":0.1}}},{"pbrMetallicRoughness":{"baseColorFactor":[0.28314874041918053,0.28314874041918053,0.28314874041918053,1],"metallicFactor":0.9,"roughnessFactor":0.1},"doubleSided":true,"extensions":{"KHR_materials_clearcoat":{"clearcoatFactor":1,"clearcoatRoughnessFactor":0.1}}},{"pbrMetallicRoughness":{"baseColorFactor":[0.28314874041918053,0.28314874041918053,0.28314874041918053,1],"metallicFactor":0.9,"roughnessFactor":0.1},"doubleSided":true,"extensions":{"KHR_materials_clearcoat":{"clearcoatFactor":1,"clearcoatRoughnessFactor":0.1}}}],"meshes":[{"primitives":[{"mode":4,"attributes":{"POSITION":0,"TEXCOORD_0":1,"NORMAL":2},"material":0}]},{"primitives":[{"mode":4,"attributes":{"POSITION":3,"TEXCOORD_0":4,"NORMAL":5},"material":1}]},{"primitives":[{"mode":4,"attributes":{"POSITION":6,"TEXCOORD_0":7,"NORMAL":8},"material":2}]},{"primitives":[{"mode":4,"attributes":{"POSITION":9,"TEXCOORD_0":10,"NORMAL":11},"material":3}]},{"primitives":[{"mode":4,"attributes":{"POSITION":12,"TEXCOORD_0":13,"NORMAL":14},"material":4}]},{"primitives":[{"mode":4,"attributes":{"POSITION":15,"TEXCOORD_0":16,"NORMAL":17},"material":5}]},{"primitives":[{"mode":4,"attributes":{"POSITION":18,"TEXCOORD_0":19,"NORMAL":20},"material":6}]}],"extensionsUsed":["KHR_materials_clearcoat"]}